<?xml version="1.0" standalone="no"?><!DOCTYPE svg PUBLIC "-//W3C//DTD SVG 1.1//EN" "http://www.w3.org/Graphics/SVG/1.1/DTD/svg11.dtd"><svg t="1599212522376" class="icon" viewBox="0 0 1024 1024" version="1.1" xmlns="http://www.w3.org/2000/svg" p-id="6545" xmlns:xlink="http://www.w3.org/1999/xlink" width="200" height="200"><defs><style type="text/css"></style></defs><path d="M432.213333 675.925333l-33.621333 125.44-82.389333-22.101333 33.578666-125.397333a468.821333 468.821333 0 0 1-138.112-79.872l-91.861333 91.904-60.373333-60.373334 91.904-91.861333a467.498667 467.498667 0 0 1-101.162667-216.32l38.4-7.04A722.048 722.048 0 0 0 512 426.666667c158.037333 0 304.256-50.56 423.424-136.362667l38.4 6.997333a467.498667 467.498667 0 0 1-101.12 216.362667l91.861333 91.861333-60.373333 60.373334-91.861333-91.904a468.821333 468.821333 0 0 1-138.112 79.872l33.578666 125.44-82.389333 22.058666-33.621333-125.44a472.405333 472.405333 0 0 1-159.573334 0z" p-id="6546"></path></svg>